<svg xmlns="http://www.w3.org/2000/svg" xmlns:xlink="http://www.w3.org/1999/xlink" viewBox="0,0,256,256" width="50px" height="50px"><g fill="#ffdb6e" fill-rule="nonzero" stroke="none" stroke-width="1" stroke-linecap="butt" stroke-linejoin="miter" stroke-miterlimit="10" stroke-dasharray="" stroke-dashoffset="0" font-family="none" font-weight="none" font-size="none" text-anchor="none" style="mix-blend-mode: normal"><g transform="scale(5.12,5.12)"><path d="M25,1c-3.16072,0 -5.80169,0.56861 -7.74023,1.57617c-1.93854,1.00756 -3.25977,2.56893 -3.25977,4.42383v6v4h2v-0.38281c0.38007,0.29677 0.80134,0.56837 1.25977,0.80664c1.93854,1.00756 4.57951,1.57617 7.74023,1.57617c3.16072,0 5.80169,-0.56861 7.74023,-1.57617c0.45843,-0.23827 0.87969,-0.50987 1.25977,-0.80664v0.38281h2v-4v-6c0,-1.8549 -1.32122,-3.41627 -3.25977,-4.42383c-1.93854,-1.00756 -4.57951,-1.57617 -7.74023,-1.57617zM25,3c2.91528,0 5.27395,0.54987 6.81641,1.35156c1.54246,0.80169 2.18359,1.74034 2.18359,2.64844c0,0.9081 -0.64114,1.84675 -2.18359,2.64844c-1.54246,0.80169 -3.90113,1.35156 -6.81641,1.35156c-2.91528,0 -5.27395,-0.54987 -6.81641,-1.35156c-1.54246,-0.80169 -2.18359,-1.74034 -2.18359,-2.64844c0,-0.9081 0.64114,-1.84675 2.18359,-2.64844c1.54246,-0.80169 3.90113,-1.35156 6.81641,-1.35156zM16,10.61719c0.38007,0.29677 0.80134,0.56837 1.25977,0.80664c1.93854,1.00756 4.57951,1.57617 7.74023,1.57617c3.16072,0 5.80169,-0.56861 7.74023,-1.57617c0.45843,-0.23827 0.87969,-0.50987 1.25977,-0.80664v2.38281c0,0.9081 -0.64114,1.84674 -2.18359,2.64844c-1.54246,0.80169 -3.90113,1.35156 -6.81641,1.35156c-2.91528,0 -5.27395,-0.54987 -6.81641,-1.35156c-1.54246,-0.80169 -2.18359,-1.74034 -2.18359,-2.64844zM13,19c-3.16072,0 -5.80169,0.56861 -7.74023,1.57617c-1.93854,1.00756 -3.25977,2.56893 -3.25977,4.42383v6v12c0,1.8549 1.32122,3.41627 3.25977,4.42383c1.93854,1.00756 4.57951,1.57617 7.74023,1.57617c3.16072,0 5.80169,-0.56861 7.74023,-1.57617c1.93854,-1.00756 3.25977,-2.56893 3.25977,-4.42383v-12v-6c0,-1.8549 -1.32122,-3.41627 -3.25977,-4.42383c-1.93854,-1.00756 -4.57951,-1.57617 -7.74023,-1.57617zM37,19c-3.16072,0 -5.80169,0.56861 -7.74023,1.57617c-1.93854,1.00756 -3.25977,2.56893 -3.25977,4.42383v6v12c0,1.8549 1.32122,3.41627 3.25977,4.42383c1.93854,1.00756 4.57951,1.57617 7.74023,1.57617c3.16072,0 5.80169,-0.56861 7.74023,-1.57617c1.93854,-1.00756 3.25977,-2.56893 3.25977,-4.42383v-12v-6c0,-1.8549 -1.32122,-3.41627 -3.25977,-4.42383c-1.93854,-1.00756 -4.57951,-1.57617 -7.74023,-1.57617zM13,21c2.91528,0 5.27395,0.54987 6.81641,1.35156c1.54246,0.80169 2.18359,1.74034 2.18359,2.64844c0,0.9081 -0.64114,1.84675 -2.18359,2.64844c-1.54246,0.80169 -3.90113,1.35156 -6.81641,1.35156c-2.91528,0 -5.27395,-0.54987 -6.81641,-1.35156c-1.54246,-0.80169 -2.18359,-1.74034 -2.18359,-2.64844c0,-0.9081 0.64114,-1.84675 2.18359,-2.64844c1.54246,-0.80169 3.90113,-1.35156 6.81641,-1.35156zM37,21c2.91528,0 5.27395,0.54987 6.81641,1.35156c1.54246,0.80169 2.18359,1.74034 2.18359,2.64844c0,0.9081 -0.64114,1.84675 -2.18359,2.64844c-1.54246,0.80169 -3.90113,1.35156 -6.81641,1.35156c-2.91528,0 -5.27395,-0.54987 -6.81641,-1.35156c-1.54246,-0.80169 -2.18359,-1.74034 -2.18359,-2.64844c0,-0.9081 0.64114,-1.84675 2.18359,-2.64844c1.54246,-0.80169 3.90113,-1.35156 6.81641,-1.35156zM4,28.61719c0.38007,0.29677 0.80134,0.56837 1.25977,0.80664c1.93854,1.00756 4.57951,1.57617 7.74023,1.57617c3.16072,0 5.80169,-0.56861 7.74023,-1.57617c0.45843,-0.23827 0.87969,-0.50987 1.25977,-0.80664v2.38281c0,0.9081 -0.64114,1.84675 -2.18359,2.64844c-1.54246,0.80169 -3.90113,1.35156 -6.81641,1.35156c-2.91528,0 -5.27395,-0.54987 -6.81641,-1.35156c-1.54246,-0.80169 -2.18359,-1.74034 -2.18359,-2.64844zM28,28.61719c0.38007,0.29677 0.80134,0.56837 1.25977,0.80664c1.93854,1.00756 4.57951,1.57617 7.74023,1.57617c3.16072,0 5.80169,-0.56861 7.74023,-1.57617c0.45843,-0.23827 0.87969,-0.50987 1.25977,-0.80664v2.38281c0,0.9081 -0.64114,1.84675 -2.18359,2.64844c-1.54246,0.80169 -3.90113,1.35156 -6.81641,1.35156c-2.91528,0 -5.27395,-0.54987 -6.81641,-1.35156c-1.54246,-0.80169 -2.18359,-1.74034 -2.18359,-2.64844zM4,34.61719c0.38007,0.29677 0.80134,0.56837 1.25977,0.80664c1.93854,1.00756 4.57951,1.57617 7.74023,1.57617c3.16072,0 5.80169,-0.56861 7.74023,-1.57617c0.45843,-0.23827 0.87969,-0.50987 1.25977,-0.80664v2.38281c0,0.9081 -0.64114,1.84675 -2.18359,2.64844c-1.54246,0.80169 -3.90113,1.35156 -6.81641,1.35156c-2.91528,0 -5.27395,-0.54987 -6.81641,-1.35156c-1.54246,-0.80169 -2.18359,-1.74034 -2.18359,-2.64844zM28,34.61719c0.38007,0.29677 0.80134,0.56837 1.25977,0.80664c1.93854,1.00756 4.57951,1.57617 7.74023,1.57617c3.16072,0 5.80169,-0.56861 7.74023,-1.57617c0.45843,-0.23827 0.87969,-0.50987 1.25977,-0.80664v2.38281c0,0.9081 -0.64114,1.84675 -2.18359,2.64844c-1.54246,0.80169 -3.90113,1.35156 -6.81641,1.35156c-2.91528,0 -5.27395,-0.54987 -6.81641,-1.35156c-1.54246,-0.80169 -2.18359,-1.74034 -2.18359,-2.64844zM4,40.61719c0.38007,0.29677 0.80134,0.56837 1.25977,0.80664c1.93854,1.00756 4.57951,1.57617 7.74023,1.57617c3.16072,0 5.80169,-0.56861 7.74023,-1.57617c0.45843,-0.23827 0.87969,-0.50987 1.25977,-0.80664v2.38281c0,0.9081 -0.64114,1.84675 -2.18359,2.64844c-1.54246,0.80169 -3.90113,1.35156 -6.81641,1.35156c-2.91528,0 -5.27395,-0.54987 -6.81641,-1.35156c-1.54246,-0.80169 -2.18359,-1.74034 -2.18359,-2.64844zM28,40.61719c0.38007,0.29677 0.80134,0.56837 1.25977,0.80664c1.93854,1.00756 4.57951,1.57617 7.74023,1.57617c3.16072,0 5.80169,-0.56861 7.74023,-1.57617c0.45843,-0.23827 0.87969,-0.50987 1.25977,-0.80664v2.38281c0,0.9081 -0.64114,1.84675 -2.18359,2.64844c-1.54246,0.80169 -3.90113,1.35156 -6.81641,1.35156c-2.91528,0 -5.27395,-0.54987 -6.81641,-1.35156c-1.54246,-0.80169 -2.18359,-1.74034 -2.18359,-2.64844z"></path></g></g></svg>